<svg width="150" height="150" viewBox="0 0 150 150" fill="none" xmlns="http://www.w3.org/2000/svg">
<path d="M75.4531 33.9534C64.1313 33.9534 54.9531 43.1315 54.9531 54.4534V64.9534H63.9531V53.9534C63.9531 47.8782 68.878 42.9534 74.9531 42.9534C81.0283 42.9534 85.9531 47.8782 85.9531 53.9534V64.9534H95.9531V54.4534C95.9531 43.1315 86.775 33.9534 75.4531 33.9534Z" fill="url(#paint0_linear_15_587)"/>
<path fill-rule="evenodd" clip-rule="evenodd" d="M47.9531 68.9534C47.9531 66.1919 50.1917 63.9534 52.9531 63.9534H97.9521C100.714 63.9534 102.952 66.1919 102.952 68.9534V99.9534C102.975 100.892 102.495 101.849 101.396 102.489L77.4479 116.428C76.244 117.129 74.6612 117.129 73.4573 116.428L49.5098 102.489C48.4098 101.849 47.9314 100.892 47.9539 99.9534L47.9531 68.9534ZM75.4531 74.9534C80.1263 74.9534 83.9531 78.7417 83.9531 83.4149V90.6014C83.9531 91.3056 83.3823 91.8764 82.6781 91.8764C81.974 91.8764 81.4031 92.4473 81.4031 93.1514V94.4149C81.4031 95.8169 80.2666 96.9534 78.8647 96.9534H72.0416C70.6396 96.9534 69.5031 95.8169 69.5031 94.4149V93.1514C69.5031 92.4473 68.9323 91.8764 68.2281 91.8764C67.524 91.8764 66.9531 91.3056 66.9531 90.6014V83.4149C66.9531 78.7417 70.7799 74.9534 75.4531 74.9534Z" fill="url(#paint1_linear_15_587)"/>
<path d="M2.82843 74.9533L74.9533 2.82843L147.078 74.9533L74.9533 147.078L2.82843 74.9533Z" stroke="url(#paint2_linear_15_587)" stroke-width="4"/>
<defs>
<linearGradient id="paint0_linear_15_587" x1="92" y1="37.5" x2="66" y2="139" gradientUnits="userSpaceOnUse">
<stop stop-color="#B4B4B4"/>
<stop offset="1" stop-color="#575757"/>
</linearGradient>
<linearGradient id="paint1_linear_15_587" x1="92" y1="37.5" x2="66" y2="139" gradientUnits="userSpaceOnUse">
<stop stop-color="#B4B4B4"/>
<stop offset="1" stop-color="#575757"/>
</linearGradient>
<linearGradient id="paint2_linear_15_587" x1="92.5" y1="1.5" x2="11" y2="199" gradientUnits="userSpaceOnUse">
<stop stop-color="#A8A8A8"/>
<stop offset="1" stop-color="#4D4D4D"/>
</linearGradient>
</defs>
</svg>
