<svg width="20" height="18" viewBox="0 0 20 18" fill="none" xmlns="http://www.w3.org/2000/svg">
<path fill-rule="evenodd" clip-rule="evenodd" d="M0.246445 3.78637C0.084822 3.82283 -0.0235502 3.98479 0.00438874 4.1481L0.481952 6.93962C0.509891 7.10294 0.663561 7.20577 0.825184 7.1693L1.33924 7.05332V17.6749C1.33924 17.8406 1.47356 17.9749 1.63924 17.9749H18.7053C18.871 17.9749 19.0053 17.8406 19.0053 17.6749V6.07573C19.0053 5.91005 18.871 5.77573 18.7053 5.77573H7.00176L17.5746 3.39028C17.7362 3.35381 17.8446 3.19186 17.8166 3.02855L17.3391 0.237024C17.3111 0.0737114 17.1575 -0.0291186 16.9958 0.00734698L0.246445 3.78637ZM7.97561 13.9794L12.9892 11.974L7.97561 9.96852V13.9794Z" fill="white"/>
</svg>
