<svg width="14" height="14" viewBox="0 0 14 14" fill="none" xmlns="http://www.w3.org/2000/svg">
<path d="M11.1988 1.25745C11.7811 0.675143 12.7252 0.675144 13.3075 1.25745C13.8898 1.83977 13.8898 2.78388 13.3075 3.36619L3.36633 13.3074C2.78402 13.8897 1.83991 13.8897 1.2576 13.3074C0.675286 12.7251 0.675286 11.7809 1.2576 11.1986L11.1988 1.25745Z" fill="#202020"/>
<path d="M13.3075 11.1986C13.8898 11.7809 13.8898 12.7251 13.3075 13.3074C12.7252 13.8897 11.7811 13.8897 11.1988 13.3074L1.25758 3.36618C0.675272 2.78387 0.675273 1.83976 1.25758 1.25745C1.8399 0.675137 2.78401 0.675137 3.36632 1.25745L13.3075 11.1986Z" fill="#202020"/>
</svg>
