<svg width="29" height="22" viewBox="0 0 29 22" fill="none" xmlns="http://www.w3.org/2000/svg">
<path d="M7.07341 19.5016L6.69656 19.8302L7.07341 19.5016ZM2.02499 13.7122L2.40184 13.3835H2.40184L2.02499 13.7122ZM2.02499 8.28785L1.64814 7.95924L2.02499 8.28785ZM7.07341 2.49838L7.45026 2.82699L7.45026 2.82699L7.07341 2.49838ZM11.3028 14.6329C11.1042 14.8247 11.0986 15.1412 11.2905 15.3399C11.4823 15.5385 11.7988 15.544 11.9975 15.3522L11.3028 14.6329ZM19.9467 7.67547C20.1453 7.48364 20.1509 7.16711 19.959 6.96847C19.7672 6.76983 19.4507 6.76431 19.252 6.95614L19.9467 7.67547ZM19.0537 15.3522C19.2524 15.544 19.5689 15.5385 19.7607 15.3399C19.9526 15.1412 19.9471 14.8247 19.7484 14.6329L19.0537 15.3522ZM11.7992 6.95614C11.6005 6.76431 11.284 6.76983 11.0922 6.96847C10.9003 7.16711 10.9059 7.48364 11.1045 7.67547L11.7992 6.95614ZM10.4084 1.5H23.64V0.5H10.4084V1.5ZM27.5 5.21053V16.7895H28.5V5.21053H27.5ZM23.64 20.5H10.4084V21.5H23.64V20.5ZM7.45026 19.173L2.40184 13.3835L1.64814 14.0408L6.69656 19.8302L7.45026 19.173ZM2.40184 8.61646L7.45026 2.82699L6.69656 2.16976L1.64814 7.95924L2.40184 8.61646ZM2.40184 13.3835C1.19939 12.0046 1.19939 9.99541 2.40184 8.61646L1.64814 7.95924C0.117287 9.7148 0.117287 12.2852 1.64814 14.0408L2.40184 13.3835ZM10.4084 20.5C9.26344 20.5 8.18154 20.0116 7.45026 19.173L6.69656 19.8302C7.62213 20.8917 8.98121 21.5 10.4084 21.5V20.5ZM27.5 16.7895C27.5 18.8224 25.7884 20.5 23.64 20.5V21.5C26.3075 21.5 28.5 19.4073 28.5 16.7895H27.5ZM23.64 1.5C25.7884 1.5 27.5 3.17756 27.5 5.21053H28.5C28.5 2.59268 26.3075 0.5 23.64 0.5V1.5ZM10.4084 0.5C8.98121 0.5 7.62213 1.10833 6.69656 2.16976L7.45026 2.82699C8.18154 1.98837 9.26344 1.5 10.4084 1.5V0.5ZM11.9975 15.3522L19.9467 7.67547L19.252 6.95614L11.3028 14.6329L11.9975 15.3522ZM19.7484 14.6329L11.7992 6.95614L11.1045 7.67547L19.0537 15.3522L19.7484 14.6329Z" fill="#000"/>
</svg>
