<svg width="22" height="14" viewBox="0 0 22 14" fill="none" xmlns="http://www.w3.org/2000/svg">
<path d="M21.1065 3.04844C21.6105 2.50483 21.6105 1.6647 21.1065 1.12109C20.5457 0.516121 19.5886 0.516121 19.0277 1.12109L10.0077 10.85C9.50373 11.3936 9.50373 12.2337 10.0077 12.7773C10.5686 13.3823 11.5256 13.3823 12.0865 12.7773L21.1065 3.04844Z" fill="url(#paint0_linear_15_750)"/>
<path d="M2.97227 1.22285C2.41137 0.617875 1.45435 0.617874 0.893454 1.22285C0.38946 1.76645 0.38946 2.60659 0.893454 3.15019L9.91346 12.8791C10.4744 13.4841 11.4314 13.4841 11.9923 12.8791C12.4963 12.3355 12.4963 11.4954 11.9923 10.9517L2.97227 1.22285Z" fill="url(#paint1_linear_15_750)"/>
<defs>
<linearGradient id="paint0_linear_15_750" x1="22" y1="7" x2="8.34742e-08" y2="7" gradientUnits="userSpaceOnUse">
<stop stop-color="#1772AF"/>
<stop offset="1" stop-color="#105A8C"/>
</linearGradient>
<linearGradient id="paint1_linear_15_750" x1="22" y1="7" x2="8.34742e-08" y2="7" gradientUnits="userSpaceOnUse">
<stop stop-color="#1772AF"/>
<stop offset="1" stop-color="#105A8C"/>
</linearGradient>
</defs>
</svg>
