<svg width="19" height="28" viewBox="0 0 19 28" fill="none" xmlns="http://www.w3.org/2000/svg">
<path fill-rule="evenodd" clip-rule="evenodd" d="M15.4618 2.36914C14.5356 1.56519 13.4615 0.951115 12.3 0.562427L12.2984 0.567318C9.96629 -0.168072 7.44194 0.0426655 5.2687 1.15473C3.09536 2.26658 1.44711 4.19061 0.679073 6.51207C-0.0889633 8.83353 0.0845033 11.3672 1.16232 13.5666C1.96771 15.2107 3.22936 16.5701 4.77815 17.4926C4.74381 17.5641 4.71424 17.6381 4.68886 17.7143L2.34683 24.7979C2.20135 25.2648 2.24472 25.7708 2.46771 26.207C2.69069 26.6432 3.07572 26.9746 3.53975 27.1297C4.00337 27.285 4.50874 27.2516 4.94725 27.0369C5.38576 26.8222 5.72213 26.4431 5.884 25.9815L8.22756 18.8969C8.25041 18.8278 8.26879 18.7579 8.28331 18.6874C8.86761 18.7578 9.45872 18.7727 10.0485 18.7312C11.2688 18.6452 12.4595 18.3194 13.5529 17.7719C14.6464 17.2245 15.621 16.4661 16.421 15.5407C17.2209 14.615 17.8306 13.54 18.2153 12.3771C18.6 11.2143 18.7519 9.98639 18.6631 8.7632C18.612 8.06109 18.4819 7.36849 18.2764 6.69825C18.124 6.20093 17.93 5.716 17.6961 5.24878C17.1469 4.1518 16.3875 3.17329 15.4618 2.36914ZM9.92988 16.8971C8.94577 16.9582 7.95945 16.8231 7.02719 16.4994C5.17154 15.8555 3.64177 14.505 2.77065 12.7407C1.89954 10.9765 1.75692 8.94106 2.37376 7.07611C2.99059 5.21116 4.31681 3.66745 6.0654 2.77948C7.81357 1.89172 9.84266 1.73153 11.7125 2.33363C12.6515 2.63631 13.5222 3.12241 14.2735 3.76394C14.6889 4.11838 15.0632 4.51661 15.3903 4.95068C15.6551 5.30193 15.8895 5.67661 16.0898 6.07062C16.3346 6.55252 16.5258 7.05824 16.6609 7.57879C16.7732 8.01023 16.8469 8.45184 16.8808 8.89831C16.9552 9.88359 16.834 10.8732 16.5242 11.8101C16.2144 12.7469 15.722 13.6125 15.0756 14.3562C14.4292 15.1002 13.6415 15.7078 12.7582 16.1439C12.28 16.38 11.7794 16.5631 11.2645 16.6913C10.828 16.8002 10.3816 16.8691 9.92988 16.8971Z" fill="url(#paint0_linear_15_813)"/>
<defs>
<linearGradient id="paint0_linear_15_813" x1="3.28302" y1="2.1485" x2="13.58" y2="22.7148" gradientUnits="userSpaceOnUse">
<stop stop-color="#1772AF"/>
<stop offset="1" stop-color="#105A8C"/>
</linearGradient>
</defs>
</svg>
