<svg width="21" height="26" viewBox="0 0 21 26" fill="none" xmlns="http://www.w3.org/2000/svg">
<path fill-rule="evenodd" clip-rule="evenodd" d="M10.5215 1.0036C8.9601 0.449325 7.24501 1.26576 6.69074 2.82715L1.0037 18.8477C0.449426 20.4091 1.26586 22.1242 2.82726 22.6784L10.9394 25.5581C12.5008 26.1124 14.2159 25.296 14.7702 23.7346L20.4572 7.71403C21.0115 6.15264 20.195 4.43755 18.6336 3.88328L10.5215 1.0036ZM8.48713 15.5251C8.74192 15.7739 9.06218 15.9668 9.44791 16.1037C9.86642 16.2523 10.2648 16.2986 10.6429 16.2428C11.0236 16.1858 11.3563 16.0409 11.6408 15.8083C11.928 15.5744 12.1391 15.2671 12.2743 14.8864C12.4055 14.5169 12.441 14.16 12.3808 13.8155C12.3207 13.4711 12.1788 13.1673 11.9551 12.9041C11.7321 12.6391 11.4413 12.443 11.0825 12.3156C10.8434 12.2307 10.6085 12.1949 10.378 12.2081C10.1481 12.2194 9.95592 12.2684 9.80138 12.355L9.76667 12.3427L10.4796 10.8757L13.0283 11.7804L13.3379 10.9083L9.90107 9.68829L8.53694 12.5492L9.45115 13.048C9.58939 12.9767 9.75599 12.9387 9.95094 12.9339C10.1459 12.9292 10.3318 12.9593 10.5085 13.0242C10.7265 13.1015 10.902 13.2188 11.0352 13.3759C11.169 13.5311 11.2542 13.7102 11.2907 13.9132C11.3272 14.1162 11.3059 14.3262 11.2267 14.5431C11.1528 14.7576 11.0389 14.9315 10.8851 15.0649C10.7314 15.1982 10.5559 15.2827 10.3587 15.3183C10.1615 15.3539 9.95773 15.3343 9.74751 15.2597C9.47943 15.1646 9.27622 15.009 9.13788 14.7931C9.0002 14.5752 8.96367 14.3448 9.02827 14.1016L7.9868 13.7319C7.88519 14.0548 7.87916 14.3716 7.96872 14.6821C8.0602 14.9934 8.233 15.2743 8.48713 15.5251Z" fill="url(#paint0_linear_15_802)"/>
<defs>
<linearGradient id="paint0_linear_15_802" x1="14.5776" y1="2.44344" x2="6.88333" y2="24.1183" gradientUnits="userSpaceOnUse">
<stop stop-color="#1772AF"/>
<stop offset="1" stop-color="#105A8C"/>
</linearGradient>
</defs>
</svg>
