<svg width="29" height="18" viewBox="0 0 29 18" fill="none" xmlns="http://www.w3.org/2000/svg">
<path d="M3.79785 17H0.563477L6.45233 0.272705H10.1931L16.0901 17H12.8557L8.38805 3.7031H8.25737L3.79785 17ZM3.90403 10.4414H12.7251V12.8753H3.90403V10.4414Z" fill="url(#paint0_linear_15_798)"/>
<path d="M21.7727 17.2532C20.9777 17.2532 20.2617 17.1116 19.6246 16.8285C18.993 16.5399 18.4921 16.1152 18.1218 15.5543C17.757 14.9935 17.5746 14.3019 17.5746 13.4797C17.5746 12.7719 17.7053 12.1865 17.9666 11.7237C18.228 11.2609 18.5846 10.8906 19.0366 10.6129C19.4885 10.3352 19.9976 10.1256 20.5639 9.984C21.1357 9.83698 21.7264 9.7308 22.3363 9.66546C23.0714 9.58923 23.6676 9.52117 24.125 9.46127C24.5824 9.39593 24.9145 9.29792 25.1214 9.16724C25.3338 9.03111 25.44 8.82147 25.44 8.53833V8.48932C25.44 7.87403 25.2576 7.39759 24.8928 7.05999C24.5279 6.7224 24.0025 6.5536 23.3164 6.5536C22.5922 6.5536 22.0178 6.71151 21.593 7.02732C21.1738 7.34314 20.8906 7.71612 20.7436 8.14629L17.983 7.75424C18.2008 6.99193 18.5601 6.35485 19.0611 5.84302C19.562 5.32574 20.1746 4.93913 20.8988 4.68322C21.623 4.42185 22.4234 4.29117 23.3001 4.29117C23.9045 4.29117 24.5062 4.36196 25.1051 4.50353C25.7041 4.6451 26.2513 4.87924 26.7468 5.20594C27.2423 5.5272 27.6398 5.96553 27.9393 6.52093C28.2442 7.07633 28.3967 7.77057 28.3967 8.60367V17H25.5543V15.2766H25.4563C25.2766 15.6251 25.0234 15.9518 24.6967 16.2567C24.3755 16.5562 23.9698 16.7985 23.4798 16.9836C22.9951 17.1633 22.4261 17.2532 21.7727 17.2532ZM22.5405 15.0806C23.134 15.0806 23.6486 14.9635 24.0842 14.7294C24.5198 14.4898 24.8546 14.174 25.0888 13.7819C25.3284 13.3899 25.4482 12.9625 25.4482 12.4996V11.0213C25.3556 11.0975 25.1977 11.1683 24.9744 11.2336C24.7566 11.299 24.5116 11.3562 24.2393 11.4052C23.9671 11.4542 23.6976 11.4977 23.4308 11.5358C23.1639 11.574 22.9325 11.6066 22.7365 11.6339C22.2955 11.6938 21.9007 11.7918 21.5522 11.9279C21.2037 12.064 20.9287 12.2546 20.7273 12.4996C20.5258 12.7392 20.4251 13.0496 20.4251 13.4307C20.4251 13.9752 20.6238 14.3863 21.0213 14.664C21.4188 14.9417 21.9252 15.0806 22.5405 15.0806Z" fill="url(#paint1_linear_15_798)"/>
<defs>
<linearGradient id="paint0_linear_15_798" x1="14.4801" y1="0.272705" x2="14.4801" y2="17.2532" gradientUnits="userSpaceOnUse">
<stop stop-color="#1772AF"/>
<stop offset="1" stop-color="#105A8C"/>
</linearGradient>
<linearGradient id="paint1_linear_15_798" x1="14.4801" y1="0.272705" x2="14.4801" y2="17.2532" gradientUnits="userSpaceOnUse">
<stop stop-color="#1772AF"/>
<stop offset="1" stop-color="#105A8C"/>
</linearGradient>
</defs>
</svg>
