<svg width="24" height="25" viewBox="0 0 24 25" fill="none" xmlns="http://www.w3.org/2000/svg">
<path fill-rule="evenodd" clip-rule="evenodd" d="M11.2198 1.52592C11.2242 1.52972 11.2307 1.52972 11.2352 1.52592L11.6601 1.16045C11.9089 0.946516 12.2766 0.946516 12.5254 1.16045L22.5985 9.82393C23.1338 10.2843 23.1338 11.113 22.5985 11.5734C22.3179 11.8147 21.9502 11.8995 21.6084 11.8277V21.7989C21.6084 22.9034 20.713 23.7989 19.6084 23.7989H15.0182V18.193C15.0182 16.6388 13.7582 15.3788 12.2039 15.3788C10.6497 15.3788 9.38966 16.6388 9.38966 18.193V23.7989H4.4133C3.30873 23.7989 2.41331 22.9034 2.41331 21.7989V11.956C2.06542 12.0361 1.688 11.9529 1.40143 11.7065C0.866191 11.2461 0.866191 10.4173 1.40143 9.95701L11.0402 1.66714L11.0509 1.65341L11.0536 1.65562L11.2044 1.52592C11.2088 1.52212 11.2154 1.52212 11.2198 1.52592Z" fill="url(#paint0_linear_132_19)"/>
<path d="M11.2352 1.52592L11.5612 1.90503L11.5612 1.905L11.2352 1.52592ZM11.2198 1.52592L11.5458 1.14685L11.5458 1.14681L11.2198 1.52592ZM11.6601 1.16045L11.3341 0.781369L11.3341 0.78137L11.6601 1.16045ZM12.5254 1.16045L12.1993 1.53953L12.1993 1.53953L12.5254 1.16045ZM22.5985 9.82393L22.9246 9.44484L22.5985 9.82393ZM22.5985 11.5734L22.9246 11.9525L22.5985 11.5734ZM21.6084 11.8277L21.7112 11.3384L21.1084 11.2118V11.8277H21.6084ZM15.0182 23.7989H14.5182V24.2989H15.0182V23.7989ZM9.38966 23.7989V24.2989H9.88966V23.7989H9.38966ZM2.41331 11.956H2.91331V11.3278L2.3011 11.4687L2.41331 11.956ZM1.40143 11.7065L1.72746 11.3274H1.72746L1.40143 11.7065ZM1.40143 9.95701L1.72746 10.3361H1.72746L1.40143 9.95701ZM11.0402 1.66714L11.3662 2.04623L11.4038 2.01393L11.4343 1.9749L11.0402 1.66714ZM11.0509 1.65341L11.3705 1.26886L10.9741 0.939449L10.6569 1.34565L11.0509 1.65341ZM11.0536 1.65562L10.734 2.04017L11.0591 2.31035L11.3796 2.03471L11.0536 1.65562ZM11.2044 1.52592L10.8784 1.14681L10.8784 1.14684L11.2044 1.52592ZM10.9092 1.14681C11.0922 0.989444 11.3628 0.989392 11.5458 1.14685L10.8937 1.90499C11.0857 2.07005 11.3693 2.07 11.5612 1.90503L10.9092 1.14681ZM11.3341 0.78137L10.9091 1.14684L11.5612 1.905L11.9861 1.53953L11.3341 0.78137ZM12.8514 0.78137C12.4152 0.40621 11.7703 0.406211 11.3341 0.781369L11.9861 1.53953C12.0474 1.48682 12.138 1.48682 12.1993 1.53953L12.8514 0.78137ZM22.9246 9.44484L12.8514 0.781369L12.1993 1.53953L22.2725 10.203L22.9246 9.44484ZM22.9246 11.9525C23.6918 11.2926 23.6918 10.1047 22.9246 9.44484L22.2725 10.203C22.5758 10.4638 22.5758 10.9335 22.2725 11.1943L22.9246 11.9525ZM21.5056 12.317C21.9947 12.4197 22.5221 12.2986 22.9246 11.9525L22.2725 11.1943C22.1138 11.3308 21.9058 11.3792 21.7112 11.3384L21.5056 12.317ZM22.1084 21.7989V11.8277H21.1084V21.7989H22.1084ZM19.6084 24.2989C20.9891 24.2989 22.1084 23.1796 22.1084 21.7989H21.1084C21.1084 22.6273 20.4368 23.2989 19.6084 23.2989V24.2989ZM15.0182 24.2989H19.6084V23.2989H15.0182V24.2989ZM14.5182 18.193V23.7989H15.5182V18.193H14.5182ZM12.2039 15.8788C13.4821 15.8788 14.5182 16.9149 14.5182 18.193H15.5182C15.5182 16.3626 14.0343 14.8788 12.2039 14.8788V15.8788ZM9.88966 18.193C9.88966 16.9149 10.9258 15.8788 12.2039 15.8788V14.8788C10.3735 14.8788 8.88966 16.3626 8.88966 18.193H9.88966ZM9.88966 23.7989V18.193H8.88966V23.7989H9.88966ZM4.4133 24.2989H9.38966V23.2989H4.4133V24.2989ZM1.91331 21.7989C1.91331 23.1796 3.03259 24.2989 4.4133 24.2989V23.2989C3.58488 23.2989 2.91331 22.6273 2.91331 21.7989H1.91331ZM1.91331 11.956V21.7989H2.91331V11.956H1.91331ZM1.0754 12.0855C1.48643 12.439 2.02773 12.5579 2.52551 12.4432L2.3011 11.4687C2.1031 11.5143 1.88957 11.4668 1.72746 11.3274L1.0754 12.0855ZM1.0754 9.57793C0.308201 10.2378 0.308201 11.4257 1.0754 12.0855L1.72746 11.3274C1.42418 11.0665 1.42418 10.5969 1.72746 10.3361L1.0754 9.57793ZM10.7142 1.28806L1.0754 9.57793L1.72746 10.3361L11.3662 2.04623L10.7142 1.28806ZM10.6569 1.34565L10.6461 1.35938L11.4343 1.9749L11.445 1.96117L10.6569 1.34565ZM11.3732 1.27108L11.3705 1.26886L10.7314 2.03795L10.734 2.04017L11.3732 1.27108ZM10.8784 1.14684L10.7276 1.27654L11.3796 2.03471L11.5304 1.905L10.8784 1.14684ZM11.5458 1.14681C11.354 0.981849 11.0703 0.981792 10.8784 1.14681L11.5304 1.90503C11.3474 2.06244 11.0768 2.06239 10.8938 1.90503L11.5458 1.14681Z" fill="url(#paint1_linear_132_19)"/>
<defs>
<linearGradient id="paint0_linear_132_19" x1="12" y1="1" x2="12" y2="23.7989" gradientUnits="userSpaceOnUse">
<stop stop-color="#4059FF"/>
<stop offset="1" stop-color="#02DDF0"/>
</linearGradient>
<linearGradient id="paint1_linear_132_19" x1="12" y1="1" x2="12" y2="23.7989" gradientUnits="userSpaceOnUse">
<stop stop-color="#4059FF"/>
<stop offset="1" stop-color="#02DDF0"/>
</linearGradient>
</defs>
</svg>
