<svg width="33" height="35" viewBox="0 0 33 35" fill="none" xmlns="http://www.w3.org/2000/svg">
<path fill-rule="evenodd" clip-rule="evenodd" d="M15.3344 0.83634C15.3409 0.842375 15.351 0.842375 15.3576 0.83634L15.9925 0.252178C16.358 -0.0840582 16.9202 -0.0840596 17.2857 0.252176L29.0663 11.0903C29.9468 11.1826 30.6572 11.8462 30.8201 12.7038L32.4224 14.1779C33.193 14.8869 33.193 16.1031 32.4224 16.8121C31.9861 17.2135 31.4002 17.3592 30.8553 17.2493V32.9815C30.8553 34.086 29.9598 34.9815 28.8553 34.9815H21.0095V24.5247C21.0095 22.8678 19.6664 21.5247 18.0095 21.5247H15.6006C13.9438 21.5247 12.6006 22.8678 12.6006 24.5247V34.9815H4.17815C3.07358 34.9815 2.17815 34.086 2.17815 32.9815V17.4552C1.62398 17.5779 1.02313 17.4346 0.577982 17.025C-0.19266 16.316 -0.192661 15.0998 0.577981 14.3908L2.18502 12.9123C2.26984 11.8861 3.12943 11.0796 4.17745 11.0793L15.0688 1.0593L15.0828 1.0404L15.0861 1.04338L15.3111 0.836341C15.3177 0.830306 15.3278 0.830305 15.3344 0.83634Z" fill="white"/>
</svg>
