<svg width="35" height="35" viewBox="0 0 35 35" fill="none" xmlns="http://www.w3.org/2000/svg">
<path fill-rule="evenodd" clip-rule="evenodd" d="M13.2317 1.70732C13.2317 0.764393 13.9961 0 14.939 0H20.061C21.0039 0 21.7683 0.764393 21.7683 1.70732V4.09479C22.5231 4.34288 23.2488 4.65497 23.9391 5.02464L25.649 3.31475C26.3157 2.648 27.3967 2.648 28.0635 3.31475L31.6853 6.93652C32.352 7.60327 32.352 8.68428 31.6853 9.35103L29.8744 11.1619C29.8614 11.1749 29.8482 11.1876 29.8349 11.2001C30.1458 11.8519 30.4065 12.5321 30.6121 13.2358C30.6516 13.2331 30.6915 13.2317 30.7317 13.2317H33.2927C34.2356 13.2317 35 13.9961 35 14.939V20.061C35 21.0039 34.2356 21.7683 33.2927 21.7683H30.7317C30.5991 21.7683 30.47 21.7532 30.3461 21.7246C30.1153 22.3617 29.8385 22.9767 29.5197 23.5657C29.6465 23.6389 29.7659 23.7297 29.8744 23.8381L31.6853 25.649C32.352 26.3157 32.352 27.3967 31.6853 28.0635L28.0635 31.6853C27.3967 32.352 26.3157 32.352 25.649 31.6853L23.8381 29.8744C23.6838 29.7201 23.5653 29.5437 23.4824 29.3553C22.8923 29.6433 22.2783 29.89 21.6443 30.0917C21.7242 30.2893 21.7683 30.5054 21.7683 30.7317V33.2927C21.7683 34.2356 21.0039 35 20.061 35H14.939C13.9961 35 13.2317 34.2356 13.2317 33.2927V30.7317C13.2317 30.5054 13.2758 30.2893 13.3557 30.0917C12.7217 29.89 12.1077 29.6433 11.5176 29.3553C11.4347 29.5437 11.3162 29.7201 11.1619 29.8744L9.35103 31.6853C8.68428 32.352 7.60327 32.352 6.93651 31.6853L3.31475 28.0635C2.648 27.3967 2.648 26.3157 3.31475 25.649L5.12563 23.8381C5.23407 23.7297 5.35346 23.6389 5.48025 23.5657C5.16144 22.9767 4.88466 22.3617 4.65392 21.7246C4.53 21.7532 4.40092 21.7683 4.2683 21.7683H1.70732C0.764397 21.7683 0 21.0039 0 20.061V14.939C0 13.9961 0.764397 13.2317 1.70732 13.2317H4.2683C4.3085 13.2317 4.34838 13.2331 4.38788 13.2358C4.5935 12.5321 4.85422 11.8519 5.16508 11.2001C5.15177 11.1877 5.13862 11.1749 5.12563 11.1619L3.31475 9.35104C2.648 8.68429 2.648 7.60327 3.31475 6.93652L6.93651 3.31476C7.60327 2.64801 8.68428 2.64801 9.35103 3.31476L11.0609 5.02464C11.7512 4.65497 12.4769 4.34288 13.2317 4.09479V1.70732ZM17.5 24.5C21.366 24.5 24.5 21.366 24.5 17.5C24.5 13.634 21.366 10.5 17.5 10.5C13.634 10.5 10.5 13.634 10.5 17.5C10.5 21.366 13.634 24.5 17.5 24.5Z" fill="white"/>
</svg>
