<svg width="27" height="17" viewBox="0 0 27 17" fill="none" xmlns="http://www.w3.org/2000/svg">
<path d="M0.949175 0.676538C-0.0767481 0.676538 -0.0701717 1.33166 0.0613569 1.65922C0.998502 4.66186 3.51398 9.35691 6.12811 13.1239C8.74224 16.8908 13.3293 17 14.2171 17C15.1049 17 15.7461 16.8362 15.7461 16.0719C15.7461 15.4605 15.8777 14.6161 15.9434 14.2703C16.486 12.305 17.5218 12.8509 19.0015 14.9254C20.1852 16.5851 21.369 17 21.8129 17H25.956C27.1398 17 27.074 16.0173 26.8932 15.526C25.7883 13.2549 24.0653 11.5588 23.3419 10.9947C21.9609 10.0339 22.8651 8.41062 23.4899 7.7191C26.4 3.62459 26.5972 2.86028 26.9425 1.76841C27.2187 0.894915 26.4328 0.676539 26.0054 0.676538L21.4676 0.676541C20.9941 0.632866 20.7113 1.09509 20.6291 1.33166C20.4154 2.13237 19.5638 4.37798 17.867 6.95479C16.1703 9.53161 15.7461 7.81009 15.7461 6.62723C15.7626 5.13501 15.7955 2.01954 15.7955 1.49544C15.7955 0.840321 15.4009 0.239791 14.5624 0.130604C13.7239 0.0214173 12.0962 -0.0331762 11.0111 0.0214173C9.926 0.0760108 9.33412 0.621946 9.0875 0.785726C8.89021 0.916751 9.07106 1.09509 9.18615 1.16788C10.3206 1.823 10.3699 2.31434 10.5672 3.18784C10.725 3.88664 10.633 6.0631 10.5672 7.06398C10.1726 8.81097 9.67938 8.48341 8.84089 7.7191C8.00239 6.95479 6.12811 2.6965 5.73352 1.65922C5.41785 0.829399 4.87859 0.65834 4.64841 0.676538H0.949175Z" fill="#0b5586"/>
</svg>
